<svg xmlns="http://www.w3.org/2000/svg" class="ionicon" viewBox="0 0 512 512">
	<path d="M505.352,118.176c-7.68-66.438-74.119-48.552-99.658-28.111c-25.548,20.45-6.404-16.61,15.323-28.102
		c25.262-13.38,15.333-38.327-12.77-56.223c-28.102-17.886-88.165,6.394-93.264,67.725c-3.84,45.893,10.216,56.213-25.567,91.987
		c0,0-78.407,80.294-103.974,105.861c-25.548,25.557-61.321,45.988-106.042,44.711c-44.711-1.276-76.654,30.666-72.88,74.139
		c3.773,43.473,62.674,53.631,69.83,32.056c7.176-21.594,29.874-23.137,29.874-23.137c-3.84,6.384-38.317,56.214-1.276,95.828
		c37.059,39.613,108.615,6.385,99.658-58.787c-8.234-60.148-43.168-16.199-13.77-45.588
		c29.388-29.38,175.235-175.244,175.235-175.244c23.013-23.004,43.454-24.281,69.002-26.844
		C460.64,185.882,510.945,166.672,505.352,118.176z"/>
</svg>